<svg width="500" height="500" viewBox="0 0 500 500" fill="none" xmlns="http://www.w3.org/2000/svg">
<rect width="500" height="500" fill="#131313"/>
<path d="M48.7347 287V214.273H98.3796V228.548H66.3129V243.463H95.2191V257.774H66.3129V287H48.7347ZM120.689 288.03C114.959 288.03 110.035 286.858 105.916 284.514C101.82 282.147 98.6597 278.856 96.4343 274.642C94.2326 270.404 93.1317 265.492 93.1317 259.905C93.1317 254.294 94.2326 249.382 96.4343 245.168C98.6597 240.93 101.82 237.639 105.916 235.295C110.035 232.928 114.959 231.744 120.689 231.744C126.418 231.744 131.33 232.928 135.426 235.295C139.545 237.639 142.706 240.93 144.907 245.168C147.133 249.382 148.245 254.294 148.245 259.905C148.245 265.492 147.133 270.404 144.907 274.642C142.706 278.856 139.545 282.147 135.426 284.514C131.33 286.858 126.418 288.03 120.689 288.03ZM120.795 274.926C122.878 274.926 124.642 274.287 126.086 273.009C127.53 271.73 128.631 269.955 129.389 267.682C130.17 265.409 130.561 262.781 130.561 259.798C130.561 256.768 130.17 254.116 129.389 251.844C128.631 249.571 127.53 247.795 126.086 246.517C124.642 245.239 122.878 244.599 120.795 244.599C118.641 244.599 116.818 245.239 115.326 246.517C113.859 247.795 112.734 249.571 111.953 251.844C111.195 254.116 110.816 256.768 110.816 259.798C110.816 262.781 111.195 265.409 111.953 267.682C112.734 269.955 113.859 271.73 115.326 273.009C116.818 274.287 118.641 274.926 120.795 274.926ZM149.141 287V232.455H166.009V242.398H166.577C167.571 238.799 169.193 236.124 171.442 234.372C173.691 232.597 176.307 231.709 179.29 231.709C180.095 231.709 180.924 231.768 181.776 231.886C182.628 231.981 183.421 232.135 184.155 232.348V247.44C183.327 247.156 182.238 246.931 180.888 246.766C179.562 246.6 178.379 246.517 177.337 246.517C175.277 246.517 173.419 246.979 171.762 247.902C170.128 248.802 168.838 250.068 167.891 251.702C166.968 253.312 166.506 255.205 166.506 257.384V287H149.141ZM183.231 287V232.455H199.744V242.469H200.347C201.484 239.154 203.401 236.538 206.1 234.621C208.799 232.703 212.019 231.744 215.759 231.744C219.547 231.744 222.79 232.715 225.489 234.656C228.188 236.598 229.905 239.202 230.638 242.469H231.207C232.225 239.225 234.213 236.633 237.173 234.692C240.132 232.727 243.624 231.744 247.648 231.744C252.809 231.744 257 233.402 260.219 236.716C263.439 240.007 265.049 244.528 265.049 250.281V287H247.684V254.259C247.684 251.536 246.986 249.464 245.589 248.044C244.192 246.6 242.381 245.878 240.156 245.878C237.764 245.878 235.882 246.659 234.509 248.222C233.16 249.76 232.485 251.832 232.485 254.436V287H215.795V254.081C215.795 251.548 215.108 249.547 213.735 248.08C212.362 246.612 210.551 245.878 208.302 245.878C206.787 245.878 205.449 246.245 204.289 246.979C203.129 247.689 202.218 248.707 201.555 250.033C200.915 251.358 200.596 252.921 200.596 254.72V287H183.231ZM267.809 287V232.455H285.174V287H267.809ZM276.509 226.098C274.071 226.098 271.976 225.293 270.224 223.683C268.472 222.05 267.596 220.085 267.596 217.788C267.596 215.516 268.472 213.574 270.224 211.964C271.976 210.331 274.071 209.514 276.509 209.514C278.971 209.514 281.067 210.331 282.795 211.964C284.547 213.574 285.423 215.516 285.423 217.788C285.423 220.085 284.547 222.05 282.795 223.683C281.067 225.293 278.971 226.098 276.509 226.098ZM327.538 236.077C327.301 233.473 326.248 231.448 324.377 230.004C322.531 228.536 319.891 227.803 316.458 227.803C314.186 227.803 312.292 228.098 310.777 228.69C309.261 229.282 308.125 230.099 307.368 231.141C306.61 232.159 306.219 233.33 306.196 234.656C306.148 235.745 306.361 236.704 306.835 237.533C307.332 238.361 308.042 239.095 308.966 239.734C309.913 240.35 311.049 240.894 312.375 241.368C313.7 241.841 315.192 242.256 316.849 242.611L323.099 244.031C326.698 244.812 329.87 245.854 332.616 247.156C335.386 248.458 337.706 250.009 339.576 251.808C341.47 253.607 342.903 255.679 343.873 258.023C344.844 260.366 345.341 262.994 345.365 265.906C345.341 270.499 344.181 274.441 341.885 277.732C339.588 281.022 336.286 283.544 331.977 285.295C327.692 287.047 322.519 287.923 316.458 287.923C310.374 287.923 305.071 287.012 300.549 285.189C296.028 283.366 292.512 280.596 290.002 276.879C287.493 273.162 286.203 268.463 286.132 262.781H302.964C303.106 265.125 303.734 267.078 304.846 268.641C305.959 270.203 307.486 271.387 309.427 272.192C311.392 272.997 313.665 273.399 316.245 273.399C318.613 273.399 320.625 273.08 322.282 272.44C323.963 271.801 325.253 270.913 326.153 269.777C327.053 268.641 327.514 267.339 327.538 265.871C327.514 264.498 327.088 263.326 326.26 262.355C325.431 261.361 324.153 260.509 322.424 259.798C320.72 259.064 318.542 258.39 315.89 257.774L308.291 255.999C301.993 254.554 297.034 252.223 293.412 249.003C289.789 245.759 287.99 241.38 288.014 235.864C287.99 231.366 289.198 227.424 291.636 224.038C294.074 220.653 297.448 218.013 301.757 216.119C306.065 214.225 310.978 213.278 316.494 213.278C322.128 213.278 327.017 214.237 331.16 216.155C335.327 218.049 338.558 220.712 340.855 224.145C343.151 227.578 344.323 231.555 344.37 236.077H327.538ZM377.031 232.455V245.239H342.62V232.455H377.031ZM349.829 219.386H367.194V269.848C367.194 270.913 367.36 271.777 367.691 272.44C368.047 273.08 368.556 273.541 369.218 273.825C369.881 274.086 370.674 274.216 371.598 274.216C372.261 274.216 372.959 274.157 373.693 274.038C374.45 273.896 375.019 273.778 375.397 273.683L378.025 286.219C377.197 286.455 376.025 286.751 374.51 287.107C373.018 287.462 371.231 287.687 369.147 287.781C365.075 287.971 361.583 287.497 358.672 286.361C355.783 285.201 353.57 283.402 352.031 280.963C350.516 278.525 349.782 275.459 349.829 271.766V219.386ZM377.891 287V232.455H395.256V287H377.891ZM386.591 226.098C384.153 226.098 382.058 225.293 380.306 223.683C378.554 222.05 377.678 220.085 377.678 217.788C377.678 215.516 378.554 213.574 380.306 211.964C382.058 210.331 384.153 209.514 386.591 209.514C389.053 209.514 391.149 210.331 392.877 211.964C394.629 213.574 395.505 215.516 395.505 217.788C395.505 220.085 394.629 222.05 392.877 223.683C391.149 225.293 389.053 226.098 386.591 226.098ZM433.927 307.455V278.158H433.572C432.838 279.839 431.796 281.413 430.447 282.881C429.097 284.348 427.405 285.532 425.369 286.432C423.356 287.331 420.977 287.781 418.231 287.781C414.206 287.781 410.549 286.74 407.258 284.656C403.967 282.573 401.339 279.448 399.374 275.281C397.409 271.115 396.427 265.942 396.427 259.763C396.427 253.347 397.445 248.068 399.481 243.925C401.517 239.782 404.18 236.716 407.471 234.727C410.785 232.739 414.348 231.744 418.16 231.744C421.024 231.744 423.475 232.241 425.511 233.236C427.547 234.206 429.228 235.461 430.553 237C431.879 238.539 432.885 240.137 433.572 241.794H434.104V232.455H451.292V307.455H433.927ZM424.268 274.251C426.375 274.251 428.174 273.66 429.665 272.476C431.157 271.268 432.305 269.576 433.11 267.398C433.915 265.22 434.317 262.663 434.317 259.727C434.317 256.744 433.915 254.176 433.11 252.021C432.329 249.867 431.181 248.21 429.665 247.05C428.174 245.89 426.375 245.31 424.268 245.31C422.113 245.31 420.29 245.902 418.799 247.085C417.308 248.269 416.171 249.938 415.39 252.092C414.632 254.247 414.254 256.792 414.254 259.727C414.254 262.663 414.644 265.22 415.425 267.398C416.207 269.576 417.331 271.268 418.799 272.476C420.29 273.66 422.113 274.251 424.268 274.251Z" fill="white"/>
</svg>
